<?xml version="1.0" encoding="UTF-8" standalone="no"?>
<svg
   xmlns:dc="http://purl.org/dc/elements/1.1/"
   xmlns:cc="http://creativecommons.org/ns#"
   xmlns:rdf="http://www.w3.org/1999/02/22-rdf-syntax-ns#"
   xmlns:svg="http://www.w3.org/2000/svg"
   xmlns="http://www.w3.org/2000/svg"
   xmlns:sodipodi="http://sodipodi.sourceforge.net/DTD/sodipodi-0.dtd"
   xmlns:inkscape="http://www.inkscape.org/namespaces/inkscape"
   width="210mm"
   height="297mm"
   viewBox="0 0 210 297"
   version="1.1"
   id="svg28"
   inkscape:version="1.0.1 (3bc2e813f5, 2020-09-07)"
   sodipodi:docname="jnaapti-website-inkscape.svg">
  <defs
     id="defs22" />
  <sodipodi:namedview
     id="base"
     pagecolor="#ffffff"
     bordercolor="#666666"
     borderopacity="1.0"
     inkscape:pageopacity="0.0"
     inkscape:pageshadow="2"
     inkscape:zoom="0.12374369"
     inkscape:cx="-2284.8301"
     inkscape:cy="478.24476"
     inkscape:document-units="mm"
     inkscape:current-layer="layer1"
     inkscape:document-rotation="0"
     showgrid="true"
     inkscape:window-width="1366"
     inkscape:window-height="705"
     inkscape:window-x="-8"
     inkscape:window-y="-8"
     inkscape:window-maximized="1"
     inkscape:snap-global="false"
     showguides="true">
    <inkscape:grid
       type="xygrid"
       id="grid906" />
    <sodipodi:guide
       position="-1087.5197,109.27657"
       orientation="0,-1"
       id="guide1151" />
  </sodipodi:namedview>
  <metadata
     id="metadata25">
    <rdf:RDF>
      <cc:Work
         rdf:about="">
        <dc:format>image/svg+xml</dc:format>
        <dc:type
           rdf:resource="http://purl.org/dc/dcmitype/StillImage" />
        <dc:title />
      </cc:Work>
    </rdf:RDF>
  </metadata>
  <g
     inkscape:label="Layer 1"
     inkscape:groupmode="layer"
     id="layer1">
    <path
       style="fill:#5f8dd3;stroke:#5f8dd3;stroke-width:0.264583px;stroke-linecap:butt;stroke-linejoin:miter;stroke-opacity:1"
       d="M 210.15476,260.04762 C 141.99079,278.67683 101.23775,255.46316 98.273807,250.97619 90.209247,236.08404 96.433064,231.66229 95.264384,216.08055 89.638576,184.12837 33.346046,195.44551 13.607143,180.29464 -5.6845086,164.29876 -0.8621649,108.47556 6.0476171,100.54167 22.372756,82.068449 23.55531,77.489472 8.5637513,49.767765 -6.3492079,15.798546 49.473457,-5.2178467 82.398808,8.315476 c 20.511072,9.760725 41.137902,27.687155 37.515962,60.476188 25.07788,-9.645338 29.13846,-2.63195 41.85904,6.803574 17.81355,13.213246 34.87415,67.103142 6.59789,57.677722 -17.54814,-4.09743 -19.69948,33.64811 17.46383,18.97316 4.90845,-2.53142 38.47928,0.4298 18.27161,76.80745 -0.51878,5.08894 -3.19966,17.22488 5.8642,20.39729 z"
       id="path30"
       sodipodi:nodetypes="ccccccccsccccc"
       inkscape:export-filename="C:\Users\Ashwini\Desktop\jnaapti-Website\jnaapti-Web site - Copy\Images\clientsbg.png"
       inkscape:export-xdpi="96"
       inkscape:export-ydpi="96" />
    <ellipse
       style="fill:#ffffff;stroke:#ffffff;stroke-width:0.89400001;stroke-miterlimit:4;stroke-dasharray:0.447,0.447;stroke-dashoffset:0"
       id="path32"
       cx="61.758255"
       cy="36.348656"
       rx="9.8934193"
       ry="9.6071548" />
    <ellipse
       style="fill:#ffffff;stroke:#ffffff;stroke-width:0.894001;stroke-miterlimit:4;stroke-dasharray:0.447, 0.447;stroke-dashoffset:0"
       id="path32-6"
       cx="100.5417"
       cy="53.672626"
       rx="9.8934193"
       ry="9.6071558" />
    <ellipse
       style="fill:#ffffff;stroke:#ffffff;stroke-width:0.894001;stroke-miterlimit:4;stroke-dasharray:0.447, 0.447;stroke-dashoffset:0"
       id="path32-3"
       cx="37.419682"
       cy="66.145844"
       rx="9.8934193"
       ry="9.6071558" />
    <ellipse
       style="fill:#ffffff;stroke:#ffffff;stroke-width:0.894001;stroke-miterlimit:4;stroke-dasharray:0.447, 0.447;stroke-dashoffset:0"
       id="path32-0"
       cx="72.949448"
       cy="75.595245"
       rx="9.8934193"
       ry="9.6071558" />
    <ellipse
       style="fill:#ffffff;stroke:#ffffff;stroke-width:0.894001;stroke-miterlimit:4;stroke-dasharray:0.447, 0.447;stroke-dashoffset:0"
       id="path32-8"
       cx="39.309559"
       cy="105.45537"
       rx="9.8934193"
       ry="9.6071558" />
    <ellipse
       style="fill:#ffffff;stroke:#ffffff;stroke-width:0.894001;stroke-miterlimit:4;stroke-dasharray:0.447, 0.447;stroke-dashoffset:0"
       id="path32-5"
       cx="99.785751"
       cy="103.18751"
       rx="9.8934193"
       ry="9.6071558" />
    <ellipse
       style="fill:#ffffff;stroke:#ffffff;stroke-width:0.894001;stroke-miterlimit:4;stroke-dasharray:0.447, 0.447;stroke-dashoffset:0"
       id="path32-53"
       cx="67.2798"
       cy="136.07144"
       rx="9.8934193"
       ry="9.6071558" />
    <ellipse
       style="fill:#ffffff;stroke:#ffffff;stroke-width:0.894001;stroke-miterlimit:4;stroke-dasharray:0.447, 0.447;stroke-dashoffset:0"
       id="path32-9"
       cx="153.83635"
       cy="102.43156"
       rx="9.8934193"
       ry="9.6071558" />
    <ellipse
       style="fill:#ffffff;stroke:#ffffff;stroke-width:0.894001;stroke-miterlimit:4;stroke-dasharray:0.447, 0.447;stroke-dashoffset:0"
       id="path32-4"
       cx="122.8423"
       cy="140.22917"
       rx="9.8934193"
       ry="9.6071558" />
    <ellipse
       style="fill:#ffffff;stroke:#ffffff;stroke-width:0.894001;stroke-miterlimit:4;stroke-dasharray:0.447, 0.447;stroke-dashoffset:0"
       id="path32-06"
       cx="30.616114"
       cy="161.39584"
       rx="9.8934193"
       ry="9.6071558" />
    <ellipse
       style="fill:#ffffff;stroke:#ffffff;stroke-width:0.894001;stroke-miterlimit:4;stroke-dasharray:0.447, 0.447;stroke-dashoffset:0"
       id="path32-88"
       cx="85.800636"
       cy="175.75894"
       rx="9.8934193"
       ry="9.6071558" />
    <ellipse
       style="fill:#ffffff;stroke:#ffffff;stroke-width:0.894001;stroke-miterlimit:4;stroke-dasharray:0.447, 0.447;stroke-dashoffset:0"
       id="path32-90"
       cx="131.53575"
       cy="185.20834"
       rx="9.8934193"
       ry="9.6071558" />
    <ellipse
       style="fill:#ffffff;stroke:#ffffff;stroke-width:0.894001;stroke-miterlimit:4;stroke-dasharray:0.447, 0.447;stroke-dashoffset:0"
       id="path32-33"
       cx="181.4286"
       cy="176.89287"
       rx="9.8934193"
       ry="9.6071558" />
    <ellipse
       style="fill:#ffffff;stroke:#ffffff;stroke-width:0.894001;stroke-miterlimit:4;stroke-dasharray:0.447, 0.447;stroke-dashoffset:0"
       id="path32-43"
       cx="153.83635"
       cy="213.17857"
       rx="9.8934193"
       ry="9.6071558" />
    <ellipse
       style="fill:#ffffff;stroke:#ffffff;stroke-width:0.894001;stroke-miterlimit:4;stroke-dasharray:0.447, 0.447;stroke-dashoffset:0"
       id="path32-7"
       cx="111.88099"
       cy="226.40775"
       rx="9.8934193"
       ry="9.6071558" />
    <ellipse
       style="fill:#ffffff;stroke:#ffffff;stroke-width:0.894001;stroke-miterlimit:4;stroke-dasharray:0.447, 0.447;stroke-dashoffset:0"
       id="path32-889"
       cx="158.37207"
       cy="251.35417"
       rx="9.8934193"
       ry="9.6071558" />
    <ellipse
       style="fill:#ffffff;stroke:#ffffff;stroke-width:0.894001;stroke-miterlimit:4;stroke-dasharray:0.447, 0.447;stroke-dashoffset:0"
       id="path32-30"
       cx="189.74409"
       cy="229.43156"
       rx="9.8934193"
       ry="9.6071558" />
    <g
       id="g1611"
       inkscape:export-filename="C:\Users\Ashwini\Desktop\jnaapti-Website\jnaapti-Web site - Copy\Images\ourclientsbg.png"
       inkscape:export-xdpi="165"
       inkscape:export-ydpi="165">
      <path
         style="fill:#f9f9f9;stroke:#f9f9f9;stroke-width:0.560404px;stroke-linecap:butt;stroke-linejoin:miter;stroke-opacity:1"
         d="m -1181.4918,178.34267 c -19.1758,2.95298 -64.8012,-26.40291 -63.1361,-72.52861 0.4919,-3.03338 -3.1916,-48.325343 18.799,-69.083479 20.619,-21.514101 38.7356,-14.788495 64.7585,-2.406301 17.2368,12.408937 42.1018,10.716919 59.1105,-4.520225 23.4216,-15.832811 47.7419,8.245596 51.719,17.606001 13.7842,33.881726 9.4053,61.357844 -1.8997,91.441884 -6.9523,13.42757 -43.5716,54.29611 -59.7609,42.39189 -44.6811,-27.79666 -39.072,-3.11242 -69.5903,-2.90116 z"
         id="path1334-0"
         sodipodi:nodetypes="ccccccccc" />
      <g
         id="g1255"
         transform="matrix(1.2277611,0,0,1.3328803,174.15572,-76.420254)">
        <path
           style="fill:#ffccaa;stroke:#ffb380;stroke-width:0.264583px;stroke-linecap:round;stroke-linejoin:round;stroke-opacity:1"
           d="m -1135.3608,107.38942 c 0.041,1.52646 0.4266,4.06543 0.361,4.10725 0.082,0.20674 -0.7982,0.11927 -1.3208,-0.0746 0.031,0.67412 0.2157,0.74491 0.356,1.14394 -0.2539,0.56924 0.2685,-0.55486 -0.2218,0.50527 l -0.1326,2.02245 c 0.027,0.26232 -0.3061,1.10448 -2.4805,1.08668 -1.5073,-0.28134 -3.5502,-2.34305 -3.7325,-3.11831 -2.4333,0.0413 -2.1173,-7.26566 0.2362,-2.00799 0.7128,-0.74055 0.4067,-1.39618 0.4252,-2.07887 0.6335,-0.36484 1.2911,-0.32082 1.8663,-1.67727 l -0.3071,1.29929 c 0.8153,-0.47415 1.598,-0.97774 1.7954,-2.008 0.9299,1.24244 2.0408,1.03626 3.1555,0.80014 z"
           id="path72"
           sodipodi:nodetypes="ccccccccccccccc" />
        <path
           style="fill:#ffccaa;stroke:#ffb380;stroke-width:0.264583px;stroke-linecap:butt;stroke-linejoin:miter;stroke-opacity:1"
           d="m -1139.4806,115.96735 c -0.8021,1.19301 -1.2134,2.33716 -1.3029,3.44109 l -5.2452,-0.66817 c 0.9375,-1.52888 0.4447,-2.92775 0.5011,-4.37654 1.2878,-0.3112 2.1324,-0.73235 2.9932,-1.21435 0.5365,0.94112 0.9583,1.79024 3.0538,2.81797 z"
           id="path74"
           sodipodi:nodetypes="cccccc" />
        <path
           style="fill:#5599ff;stroke:#5599ff;stroke-width:0.264583px;stroke-linecap:butt;stroke-linejoin:miter;stroke-opacity:1"
           d="m -1132.7326,137.97284 c -3.7821,2.84557 -6.6997,-4.64142 -5.4301,-5.14296 2.9569,-1.16811 4.0703,20.90721 2.6942,19.58902 l -14.6466,-0.0945 c -2.4677,0.26888 -2.6256,-2.10202 -2.6458,-4.63021 -3.4494,-8.199 4.8516,-15.63949 3.0238,-22.11161 5.2592,-2.13472 10.3425,-2.03618 10.7274,-2.62863 1.704,-0.0278 1.9963,4.84801 6.0536,9.53898 1.9014,-0.50682 6.7446,-3.24463 7.6214,-3.58713 0.1728,1.93994 0.054,2.69904 0.1858,4.67161 -3.0482,1.45371 -4.4218,2.86196 -7.5837,4.39543 z"
           id="path76"
           sodipodi:nodetypes="csccccccccc" />
        <path
           style="fill:#ff9955;stroke:#ff9955;stroke-width:0.264583px;stroke-linecap:butt;stroke-linejoin:miter;stroke-opacity:1"
           d="m -1135.0706,152.54987 0.4009,13.63074 h -13.2299 l -1.6036,-12.56167 c -0.086,-0.0572 -0.4792,-0.66552 -0.5345,-1.20271 z"
           id="path80"
           sodipodi:nodetypes="cccccc" />
        <path
           style="fill:#000000;stroke:#000000;stroke-width:0.264583px;stroke-linecap:butt;stroke-linejoin:miter;stroke-opacity:1"
           d="m -1135.1207,108.31676 c 1.1411,-2.29669 1.0518,-3.98651 1.1191,-5.7463 -0.6521,-2.44659 -4.0049,-1.16287 -4.0049,-1.16287 -1.0124,0.70013 -1.7294,0.0932 -3.1218,0.28658 -1.5196,0.21104 -3.7354,1.19477 -5.3013,1.34402 -2.2753,1.4586 -1.7702,2.87856 -1.6704,4.20949 -0.062,1.43691 -0.1322,2.9296 -0.1337,3.94223 0.4293,2.05344 2.2066,3.16042 2.2718,3.14042 0.9291,0.0868 2.0028,-0.57027 2.9817,-1.15261 -2.228,-1.66105 -1.219,-6.52907 0.7434,-2.60587 0.3632,-0.50154 0.1874,-1.11656 0.1002,-1.77066 0.8345,-0.15819 1.644,-0.64722 2.2217,-1.87089 l -0.117,1.43657 c 1.403,-1.07791 1.0776,-1.53497 1.4867,-2.25508 0.6079,1.34672 2.0203,1.50414 2.8064,1.1693 0.9116,-0.28142 0.5443,0.48322 0.6181,1.03567 z"
           id="path82"
           sodipodi:nodetypes="cccscccccccccccc" />
        <path
           style="fill:#5599ff;stroke:#80b3ff;stroke-width:0.264583px;stroke-linecap:butt;stroke-linejoin:miter;stroke-opacity:1"
           d="m -1138.946,122.88295 c 0.9813,-2.15051 0.02,-3.1449 -1.8342,-3.40692 l -6.3095,-0.79783 c -3.2661,-0.877 -5.974,3.2321 -6.4225,5.80837 -1.6051,5.22273 0.6228,5.07926 0.9354,7.61718 1.2997,0.79925 1.8413,-0.29663 2.4054,-1.33635 1.1745,-2.51787 0.6775,-3.7822 0.4009,-5.21176 3.8797,-1.66686 9.4172,-1.91017 10.8245,-2.67269 z"
           id="path84"
           sodipodi:nodetypes="cccccccc" />
        <path
           style="fill:#ffccaa;stroke:#ffb380;stroke-width:0.381272;stroke-linecap:butt;stroke-linejoin:miter;stroke-miterlimit:4;stroke-dasharray:none;stroke-opacity:1"
           d="m -1142.1105,154.90922 c 1.136,0.75577 1.6104,1.59583 1.5229,2.12439 -0.1385,0.11041 -0.1394,0.27544 -0.3357,0.27587 -0.3624,-4.8e-4 0.05,0.69974 -0.37,0.58382 l 1.4124,0.61391 c 0.3345,0.49025 0.294,0.87118 -0.063,1.16096 -0.1706,0.30018 -0.6316,0.25176 -1.1736,0.10468 -1.3393,0.0163 -3.0473,-1.80523 -4.2055,-3.33097 z"
           id="path100"
           sodipodi:nodetypes="ccscccccc" />
        <path
           style="fill:#ff9955;stroke:#ff9955;stroke-width:0.365;stroke-linecap:butt;stroke-linejoin:miter;stroke-miterlimit:4;stroke-dasharray:none;stroke-opacity:1"
           d="m -1140.9964,153.6237 3.3073,6.26023 -2.5041,3.63802 -2.4568,-2.24423 c 2.5808,-4.69061 2.1465,-7.47118 1.6536,-7.65402 z"
           id="path927"
           sodipodi:nodetypes="ccccc" />
        <path
           style="fill:none;stroke:#aa4400;stroke-width:0.264583px;stroke-linecap:butt;stroke-linejoin:miter;stroke-opacity:1"
           d="m -1141.0909,153.60007 c 0.5322,2.83457 -0.5007,4.8982 -1.6064,7.60678 l -0.094,-0.87407"
           id="path925"
           sodipodi:nodetypes="cc" />
        <g
           id="g1012"
           transform="translate(-0.04724702,-0.04724702)">
          <path
             style="fill:#ffccaa;stroke:#ffb380;stroke-width:0.264583px;stroke-linecap:butt;stroke-linejoin:miter;stroke-opacity:1"
             d="m -1142.2273,156.60416 1.5141,0.90422 c 0.2515,0.12331 0.7158,0.37156 0.7627,0.2849 0.3328,-0.34721 0.2094,-0.49309 -0.021,-0.77245 l -1.1602,-1.16805 z"
             id="path984"
             sodipodi:nodetypes="cccccc" />
          <path
             style="fill:none;stroke:#ffccaa;stroke-width:0.264583px;stroke-linecap:butt;stroke-linejoin:miter;stroke-opacity:1"
             d="m -1142.0946,156.48856 c 0.1727,-0.16041 0.6965,-0.4411 0.8634,-0.58064"
             id="path986"
             sodipodi:nodetypes="cc" />
          <path
             style="fill:none;stroke:#ffccaa;stroke-width:0.264583px;stroke-linecap:butt;stroke-linejoin:miter;stroke-opacity:1"
             d="m -1141.9866,156.60937 c 0.1727,-0.16041 0.6434,-0.39975 0.8103,-0.53929"
             id="path986-8"
             sodipodi:nodetypes="cc" />
        </g>
        <path
           style="fill:none;stroke:#ffccaa;stroke-width:0.264583px;stroke-linecap:butt;stroke-linejoin:miter;stroke-opacity:1"
           d="m -1142.1697,156.4765 c 0.1727,-0.16041 0.791,-0.3466 0.9579,-0.48614"
           id="path986-7"
           sodipodi:nodetypes="cc" />
        <path
           style="fill:#ffccaa;stroke:#ffb380;stroke-width:0.264583px;stroke-linecap:butt;stroke-linejoin:miter;stroke-opacity:1"
           d="m -1125.1793,129.14904 c 0.3553,-0.18309 0.5007,0.0622 1.1813,-0.36993 0.2107,-0.67937 0.1145,-0.23362 0.2628,-1.24239 0.1392,-0.0959 0.8136,0.11227 0.6862,0.80102 l -0.2647,1.3668 1.8584,-0.48393 c 0.077,0.84813 0.037,1.39364 0.071,2.36235 -0.556,0.16608 -0.1182,1.40146 -3.7089,1.44103 z"
           id="path1069"
           sodipodi:nodetypes="ccccccccc" />
        <path
           style="fill:#80b3ff;stroke:#80b3ff;stroke-width:0.264583px;stroke-linecap:butt;stroke-linejoin:miter;stroke-opacity:1"
           d="m -1142.0975,154.62867 -3.8135,1.7449 c -8.2488,-6.93141 -2.582,-27.72397 -1.5075,-29.64895 1.8654,-1.06346 3.3652,-1.97125 5.953,0.99219 -0.694,5.23802 -3.2673,11.49104 -3.2634,14.78021 0.9795,2.48373 0.9733,10.66583 2.6314,12.13165 z"
           id="path78"
           sodipodi:nodetypes="cccccc" />
      </g>
      <g
         id="g1237"
         transform="matrix(1.3648095,0,0,1.4777359,339.3314,-101.13004)">
        <path
           style="fill:#ffccaa;stroke:#ffb380;stroke-width:0.264583px;stroke-linecap:butt;stroke-linejoin:miter;stroke-opacity:1"
           d="m -1040.0932,140.23132 c -0.7274,1.30897 -0.8002,2.92482 -1.937,3.91623 -1.3921,-0.94522 -1.7176,-1.64304 -4.8752,-4.15512 l -1.5025,2.41352 c 2.3662,3.50271 2.2755,4.38664 5.6079,5.08345 0.7298,0.45684 1.5139,0.81231 1.8885,0.55888 1.1741,-1.03892 1.6343,-0.9591 3.4259,-5.09294 z"
           id="path968"
           sodipodi:nodetypes="cccccccc" />
        <g
           id="g950"
           transform="translate(-17.386905,-28.72619)">
          <path
             style="fill:#5599ff;stroke:#5599ff;stroke-width:0.264583px;stroke-linecap:butt;stroke-linejoin:miter;stroke-opacity:1"
             d="m -1014.0376,160.33445 c 2.7365,2.04876 4.684,1.06463 6.5421,-0.45052 4.2109,0.818 3.0345,0.52139 3.9687,0.66146 1.2483,0.40947 1.0853,0.81895 1.4174,1.22842 2.76269,5.08036 1.7026,7.43034 1.4624,12.82433 l -3.7922,-0.17277 c 0.1909,-2.69512 -0.1342,-3.41356 -0.694,-7.35989 -0.014,3.60517 -0.5494,7.73093 0.4725,10.29985 l -14.7646,2.61039 c 0.441,-1.62558 3.6639,-4.95033 2.5749,-7.71307 -0.1799,-0.47993 -1.3041,-1.82361 -1.5119,-3.40179 -0.7651,2.54088 -0.9229,2.44845 -2.0989,4.51163 l -2.5579,-3.4239 2.5779,-7.51332 c 0.4772,-0.75982 1.0663,-1.24013 1.7954,-1.37017 1.5901,-0.26823 3.0577,-0.22236 4.6082,-0.73065 z"
             id="path53"
             sodipodi:nodetypes="cccccccccccccccc" />
          <ellipse
             style="fill:#ffccaa;stroke:#ffb380;stroke-width:0.894;stroke-miterlimit:4;stroke-dasharray:none;stroke-dashoffset:0"
             id="path55"
             cx="-1019.9878"
             cy="79.117348"
             rx="5.0113034"
             ry="6.9824166"
             transform="rotate(-3.8957794)" />
          <path
             style="fill:#ffccaa;stroke:#ffb380;stroke-width:0.264583px;stroke-linecap:butt;stroke-linejoin:miter;stroke-opacity:1"
             d="m -1013.4151,155.55897 c 0,1.66124 0.4277,3.13458 -0.4047,4.62962 2.7119,1.87706 4.5164,0.88939 6.1745,-0.39482 -1.7511,-1.05888 -1.912,-2.76998 -2.1045,-4.69476 -0.4093,0.16708 -1.2751,0.91997 -3.6653,0.45996 z"
             id="path880"
             sodipodi:nodetypes="ccccc" />
          <path
             style="fill:#000000;stroke:#000000;stroke-width:0.264583px;stroke-linecap:butt;stroke-linejoin:miter;stroke-opacity:1"
             d="m -1008.0367,144.94438 c -0.5264,-0.19023 -1.8212,-0.75579 -3.3331,0.009 -4.3294,4.063 -5.1316,2.55094 -6.9848,1.16635 -1.2608,-9.04555 10.8075,-5.60004 13.0237,-3.47809 2.3877,2.48236 0.4087,12.99102 4.4413,15.55434 6.77716,4.85218 1.90738,10.76139 0.7615,12.8227 0.25575,-4.92799 0.066,-6.45399 -1.8124,-7.73427 l -6.8332,-4.37637 c -0.2766,-0.92113 -0.9831,-2.24089 -0.7235,-3.70026 0.6938,-3.89866 3.1284,-8.82705 2.2099,-9.77969 -0.2944,-0.31423 -0.4718,-0.37802 -0.7494,-0.48371 z"
             id="path902"
             sodipodi:nodetypes="ccccccccscc" />
          <path
             style="fill:#000000;stroke:#000000;stroke-width:0.264583px;stroke-linecap:butt;stroke-linejoin:miter;stroke-opacity:1"
             d="m -1017.0919,150.69844 c 0.3888,2.68032 2.0729,5.23486 -1.8341,7.12584 -5.6742,4.52927 -4.2975,7.66718 -4.4511,10.58007 2.0204,-1.64978 2.65,-7.52371 5.2895,-7.68761 1.1988,-0.0744 3.0217,-0.35244 4.0393,-0.58726 0.755,-0.57457 0.7868,-4.33375 0.5065,-4.73746 -1.4941,-0.71345 -2.7701,-1.70564 -3.5501,-4.69358 z"
             id="path904"
             sodipodi:nodetypes="cccsccc" />
          <g
             id="g926"
             transform="translate(1.4646577,1.1339286)"
             style="stroke:#ffccaa">
            <path
               style="fill:#ffccaa;stroke:#ffccaa;stroke-width:0.264583px;stroke-linecap:butt;stroke-linejoin:miter;stroke-opacity:1"
               d="m -1018.3085,147.45673 c -1.8749,0.13916 -0.5582,3.01588 0.5517,2.78677 -0.2257,-0.85595 -0.5269,-1.85699 -0.5517,-2.78677 z"
               id="path882"
               sodipodi:nodetypes="ccc" />
            <ellipse
               style="fill:#ffccaa;stroke:#ffccaa;stroke-width:0.0649999;stroke-miterlimit:4;stroke-dasharray:none;stroke-dashoffset:0"
               id="path886"
               cx="-1018.2191"
               cy="149.84215"
               rx="0.075169548"
               ry="0.070993468" />
          </g>
          <ellipse
             style="fill:#1a1a1a;stroke:#ffb380;stroke-width:0.0337959;stroke-miterlimit:4;stroke-dasharray:none;stroke-dashoffset:0"
             id="path928"
             cx="-1016.664"
             cy="151.18686"
             rx="0.12835634"
             ry="0.094947658" />
        </g>
        <path
           style="fill:#5599ff;stroke:#5599ff;stroke-width:0.264583px;stroke-linecap:butt;stroke-linejoin:miter;stroke-opacity:1"
           d="m -1036.8282,151.21185 c -2.9593,4.35608 -5.9843,11.57596 -7.4036,15.56893 l 30.6361,-0.0905 c -6.8028,-0.57669 -7.8807,-10.64427 -8.4043,-16.73398 0.1977,-10.15508 -11.5493,1.32956 -14.8282,1.25552 z"
           id="path966"
           sodipodi:nodetypes="cccccc" />
        <path
           style="fill:none;stroke:#aaccff;stroke-width:0.264583px;stroke-linecap:butt;stroke-linejoin:miter;stroke-opacity:1"
           d="m -1035.2768,155.15922 c -1.1116,3.164 -2.4099,5.33224 -3.0238,11.1503"
           id="path1050"
           sodipodi:nodetypes="cc" />
        <path
           style="fill:#ffccaa;stroke:#ffb380;stroke-width:0.101852px;stroke-linecap:butt;stroke-linejoin:miter;stroke-opacity:1"
           d="m -1021.6981,145.8877 c 0.2925,1.19093 0,2.16668 -0.3609,3.12745 -2.5515,0.43221 -5.5107,0.86441 -8.266,1.29662 -2e-4,-0.10166 -1.9135,0.74013 -3.2395,-0.14931 -0.2474,-0.13517 -0.5904,-0.51413 -0.9242,-0.0236 -0.2173,0.2594 -0.4786,0.99529 0.1272,1.48399 l 1.0867,0.71941 c 0.854,0.12978 1.979,-0.41681 3.1561,-0.175 3.3924,0.37791 6.149,-0.35662 8.757,-0.62333 1.0297,-0.16267 1.9733,-0.21886 2.4192,-1.26547 0.3458,-0.19935 0.6112,-2.5769 0.5801,-4.24905 z"
           id="path1071"
           sodipodi:nodetypes="cccccccccccc" />
        <g
           id="g1218"
           style="fill:#0066ff;stroke:#0066ff">
          <path
             style="fill:#0066ff;stroke:#0066ff;stroke-width:0.264583px;stroke-linecap:butt;stroke-linejoin:miter;stroke-opacity:1"
             d="m -1034.3104,145.98806 c 5.6927,1.38069 11.5781,0.15258 11.843,0.1164"
             id="path1212"
             sodipodi:nodetypes="cc" />
          <path
             style="fill:#0066ff;stroke:#0066ff;stroke-width:0.264583px;stroke-linecap:butt;stroke-linejoin:miter;stroke-opacity:1"
             d="m -1034.5318,146.78839 c 2.3162,0.79601 8.5228,1.5569 12.2539,0.40971"
             id="path1214"
             sodipodi:nodetypes="cc" />
        </g>
      </g>
      <rect
         style="fill:#ffffff;stroke:#ffffff;stroke-width:0.567457;stroke-miterlimit:4;stroke-dasharray:none"
         id="rect1046"
         width="113.00578"
         height="98.023415"
         x="-1202.2676"
         y="55.405636" />
    </g>
    <path
       style="fill:none;stroke:#000000;stroke-width:0.264583px;stroke-linecap:butt;stroke-linejoin:miter;stroke-opacity:1"
       d="M -1091.8628,206.53252 Z"
       id="path1105" />
    <g
       id="g1210"
       transform="translate(235.33082,-156.21904)">
      <g
         id="g1149">
        <path
           style="fill:#000000;stroke:#000000;stroke-width:0.264583px;stroke-linecap:butt;stroke-linejoin:miter;stroke-opacity:1"
           d="m -1088.0292,201.77263 c -0.089,-0.89065 1.7435,-0.95152 1.6932,-0.002 0.2313,0.0701 -1.2241,0.51002 -1.6932,0.002 z"
           id="path1103"
           sodipodi:nodetypes="ccc" />
        <g
           id="g1118">
          <path
             style="fill:none;stroke:#000000;stroke-width:0.264583px;stroke-linecap:butt;stroke-linejoin:miter;stroke-opacity:1"
             d="m -1087.2132,187.89047 0.028,13.12962"
             id="path1101"
             sodipodi:nodetypes="cc" />
          <ellipse
             style="fill:#ffff00;stroke:#ffff00;stroke-width:0.365001;stroke-miterlimit:4;stroke-dasharray:none"
             id="path1113"
             cx="-1087.1689"
             cy="206.95013"
             rx="0.81851292"
             ry="0.85192162" />
          <path
             style="fill:#0088aa;stroke:#0088aa;stroke-width:0.264583px;stroke-linecap:butt;stroke-linejoin:miter;stroke-opacity:1"
             d="m -1088.0994,201.90542 -3.7467,4.69392 c 2.485,0.1571 4.9184,0.32969 9.1373,-0.0334 l -3.5434,-4.67518 c -0.6407,0.24175 -1.3511,0.15097 -1.8118,0.0265 z"
             id="path1111"
             sodipodi:nodetypes="cccccc" />
        </g>
      </g>
      <g
         id="g1197">
        <path
           style="fill:#000000;stroke:#000000;stroke-width:0.264583px;stroke-linecap:butt;stroke-linejoin:miter;stroke-opacity:1"
           d="m -1077.9781,196.69761 c -0.089,-0.89065 1.7435,-0.95152 1.6932,-0.002 0.2313,0.0701 -1.2241,0.51002 -1.6932,0.002 z"
           id="path1103-5"
           sodipodi:nodetypes="ccc" />
        <ellipse
           style="fill:#ffff00;stroke:#ffff00;stroke-width:0.365001;stroke-miterlimit:4;stroke-dasharray:none"
           id="path1113-1"
           cx="-1077.1178"
           cy="201.87511"
           rx="0.81851292"
           ry="0.85192162" />
        <path
           style="fill:#0088aa;stroke:#0088aa;stroke-width:0.264583px;stroke-linecap:butt;stroke-linejoin:miter;stroke-opacity:1"
           d="m -1078.0483,196.8304 -3.7467,4.69392 c 2.485,0.1571 4.9184,0.32969 9.1373,-0.0334 l -3.5434,-4.67518 c -0.6407,0.24175 -1.3511,0.15097 -1.8118,0.0265 z"
           id="path1111-8"
           sodipodi:nodetypes="cccccc" />
        <path
           style="fill:none;stroke:#000000;stroke-width:0.264583px;stroke-linecap:butt;stroke-linejoin:miter;stroke-opacity:1"
           d="m -1077.2632,187.85707 0.1002,8.0849"
           id="path1191" />
      </g>
    </g>
  </g>
</svg>
